<?xml version="1.0" encoding="UTF-8" standalone="no"?>
<!-- Uploaded to: SVG Repo, www.svgrepo.com, Generator: SVG Repo Mixer Tools -->

<svg
   width="800px"
   height="800px"
   viewBox="0 0 24 24"
   version="1.1"
   id="svg8"
   sodipodi:docname="facebook-circle.svg"
   inkscape:version="1.2 (dc2aedaf03, 2022-05-15)"
   xmlns:inkscape="http://www.inkscape.org/namespaces/inkscape"
   xmlns:sodipodi="http://sodipodi.sourceforge.net/DTD/sodipodi-0.dtd"
   xmlns="http://www.w3.org/2000/svg"
   xmlns:svg="http://www.w3.org/2000/svg">
  <defs
     id="defs12" />
  <sodipodi:namedview
     id="namedview10"
     pagecolor="#505050"
     bordercolor="#eeeeee"
     borderopacity="1"
     inkscape:showpageshadow="0"
     inkscape:pageopacity="0"
     inkscape:pagecheckerboard="0"
     inkscape:deskcolor="#505050"
     showgrid="false"
     inkscape:zoom="0.295"
     inkscape:cx="-38.983051"
     inkscape:cy="401.69492"
     inkscape:window-width="1920"
     inkscape:window-height="991"
     inkscape:window-x="-9"
     inkscape:window-y="-9"
     inkscape:window-maximized="1"
     inkscape:current-layer="g6" />
  <g
     id="g6">
    <path
       fill="none"
       d="M0 0h24v24H0z"
       id="path2" />
    <path
       d="M 13.2,21.5256 A 9.6012,9.6012 0 0 0 12,2.4 9.6,9.6 0 0 0 10.8,21.5256 V 14.4 H 8.4 V 12 h 2.4 v -1.9848 c 0,-1.6044 0.168,-2.1864 0.48,-2.7732 A 3.2712,3.2712 0 0 1 12.6432,5.88 c 0.4584,-0.246 1.0284,-0.3936 2.0244,-0.4572 0.3948,-0.0252 0.906,0.006 1.5336,0.096 v 2.28 H 15.6 c -1.1004,0 -1.5552,0.0516 -1.8264,0.1968 A 0.8724,0.8724 0 0 0 13.3968,8.3724 C 13.2528,8.6436 13.2,8.9124 13.2,10.014 V 12 h 3 l -0.6,2.4 H 13.2 Z M 12,24 C 5.3724,24 0,18.6276 0,12 0,5.3724 5.3724,0 12,0 c 6.6276,0 12,5.3724 12,12 0,6.6276 -5.3724,12 -12,12 z"
       id="path4"
       style="stroke-width:1.2" />
  </g>
</svg>
