<?xml version="1.0" encoding="UTF-8" standalone="no"?>
<!-- Created with Inkscape (http://www.inkscape.org/) -->

<svg
   width="7mm"
   height="7mm"
   viewBox="0 0 7 7"
   version="1.1"
   id="svg5"
   xml:space="preserve"
   inkscape:version="1.2 (dc2aedaf03, 2022-05-15)"
   sodipodi:docname="instagram.svg"
   xmlns:inkscape="http://www.inkscape.org/namespaces/inkscape"
   xmlns:sodipodi="http://sodipodi.sourceforge.net/DTD/sodipodi-0.dtd"
   xmlns="http://www.w3.org/2000/svg"
   xmlns:svg="http://www.w3.org/2000/svg"><sodipodi:namedview
     id="namedview7"
     pagecolor="#505050"
     bordercolor="#eeeeee"
     borderopacity="1"
     inkscape:showpageshadow="0"
     inkscape:pageopacity="0"
     inkscape:pagecheckerboard="0"
     inkscape:deskcolor="#505050"
     inkscape:document-units="mm"
     showgrid="false"
     inkscape:zoom="4.7572176"
     inkscape:cx="84.60828"
     inkscape:cy="14.188966"
     inkscape:window-width="1920"
     inkscape:window-height="991"
     inkscape:window-x="-9"
     inkscape:window-y="-9"
     inkscape:window-maximized="1"
     inkscape:current-layer="layer1" /><defs
     id="defs2" /><g
     inkscape:label="Camada 1"
     inkscape:groupmode="layer"
     id="layer1"><path
       style="fill:#000000;stroke-width:0.0157384"
       d="M 1.8291718,6.9165462 C 1.1599776,6.8364487 0.58020534,6.4276572 0.27842424,5.82313 0.20509599,5.6762392 0.1297292,5.4476921 0.09937007,5.2801568 0.06798206,5.1069378 0.06798206,1.896506 0.09937007,1.7232871 0.17142007,1.3256787 0.37524544,0.9324364 0.6535171,0.65416454 0.88231075,0.42537063 1.2372151,0.21959452 1.534582,0.14331678 1.8157262,0.07120011 1.8960249,0.06854458 3.6033737,0.0748997 c 1.4284976,0.0053184 1.6182709,0.0088731 1.7229604,0.03228214 0.6269213,0.14018306 1.121118,0.5197036 1.3973905,1.07313186 0.073332,0.1468912 0.1486945,0.3754383 0.1790543,0.5429735 0.017146,0.09462 0.021387,0.4474479 0.021387,1.7784348 0,1.8051143 0.00227,1.7545175 -0.090185,2.045987 -0.092435,0.2915442 -0.2396964,0.5395085 -0.452436,0.7618332 -0.284769,0.2976 -0.6154057,0.4837547 -1.0312114,0.5805925 -0.1385148,0.03226 -0.177822,0.033057 -1.778435,0.036039 -0.9002344,0.0017 -1.6844604,-0.00264 -1.7427251,-0.00963 z M 5.2674432,6.3073404 C 5.7515917,6.1711172 6.1211801,5.8308701 6.2679209,5.3862886 6.3491311,5.1402452 6.3521303,5.0638781 6.3462713,3.3915534 6.3409476,1.8720274 6.3405614,1.8558763 6.3066717,1.7353532 6.2251098,1.4452917 6.0994851,1.235491 5.8885411,1.03705 5.6641834,0.82599043 5.3916307,0.70157163 5.0802288,0.66805945 4.9785637,0.65711841 4.3984695,0.6531745 3.390906,0.65657392 1.8699289,0.66170351 1.8553438,0.6620539 1.7347055,0.69604939 1.4528354,0.77548183 1.2561328,0.88904024 1.0670992,1.0814649 0.87345894,1.2785795 0.76080644,1.4819916 0.68756972,1.7667668 c -0.0250047,0.097226 -0.0272696,0.2406953 -0.0272696,1.7270854 0,1.4973168 0.002129,1.630061 0.0279166,1.7390889 0.0372236,0.1573829 0.11615697,0.3484897 0.19176328,0.4642816 0.092932,0.1423262 0.3264544,0.3653615 0.4730628,0.4518187 0.1493803,0.088092 0.3717213,0.1653335 0.5304174,0.1842685 0.063029,0.00752 0.8228256,0.012459 1.6884352,0.010975 1.5643798,-0.00269 1.5745675,-0.00292 1.6955464,-0.036943 z M 3.1808816,5.2244509 C 2.5142467,5.0991386 1.9839065,4.6062088 1.8050125,3.9456352 1.7675173,3.8071862 1.7635809,3.7656159 1.7629681,3.5017219 1.762337,3.2308676 1.7653353,3.1995865 1.8058636,3.0531786 1.9758631,2.4391206 2.4449409,1.9714594 3.0571613,1.80566 3.1956102,1.768166 3.2371804,1.764229 3.5010742,1.763616 3.7719289,1.7629887 3.80321,1.765976 3.9496175,1.806511 c 0.614124,0.1700175 1.0825454,0.6399323 1.2473211,1.2512974 0.037412,0.1388138 0.04117,0.1793237 0.04117,0.4439133 0,0.2645895 -0.00375,0.3050994 -0.04117,0.4439132 C 5.0324264,4.556022 4.5526322,5.0366934 3.9492483,5.1956075 3.7510695,5.2478018 3.3793379,5.2617568 3.1808816,5.2244509 Z M 3.8237108,4.6188393 C 4.1572023,4.513478 4.3992045,4.306532 4.5468395,4.0004631 4.7088232,3.6646472 4.7059728,3.3279861 4.5382433,2.9851844 4.3017632,2.5018715 3.756784,2.2439321 3.235929,2.368797 2.9044279,2.448268 2.626754,2.6651731 2.4713635,2.9660379 2.2299826,3.4333963 2.3149295,3.9567172 2.6930002,4.3314446 2.80297,4.4404418 2.8489828,4.4731529 2.9852406,4.5392027 c 0.088946,0.043116 0.2112964,0.089251 0.2718891,0.102521 0.1548413,0.033912 0.4208102,0.02317 0.5665811,-0.022884 z M 5.1929483,2.0244039 C 5.0449919,1.9569572 4.9695324,1.8502206 4.9542715,1.686799 4.9374175,1.50633 5.0418732,1.3485025 5.2165655,1.2904789 c 0.1840492,-0.061132 0.3892092,0.018433 0.4734842,0.1836275 0.017292,0.033896 0.035589,0.1060748 0.040663,0.1603998 0.015588,0.1669074 -0.066784,0.3079274 -0.2229977,0.3817774 -0.097096,0.045902 -0.2246662,0.049193 -0.3147667,0.00812 z"
       id="path349" /></g></svg>
