<?xml version="1.0" encoding="UTF-8" standalone="no"?>
<!-- Uploaded to: SVG Repo, www.svgrepo.com, Generator: SVG Repo Mixer Tools -->

<svg
   fill="#000000"
   width="800px"
   height="800px"
   viewBox="-7 0 32 32"
   version="1.1"
   id="svg1408"
   sodipodi:docname="instagram (1).svg"
   inkscape:version="1.2 (dc2aedaf03, 2022-05-15)"
   xmlns:inkscape="http://www.inkscape.org/namespaces/inkscape"
   xmlns:sodipodi="http://sodipodi.sourceforge.net/DTD/sodipodi-0.dtd"
   xmlns="http://www.w3.org/2000/svg"
   xmlns:svg="http://www.w3.org/2000/svg"
   xmlns:rdf="http://www.w3.org/1999/02/22-rdf-syntax-ns#"
   xmlns:cc="http://creativecommons.org/ns#"
   xmlns:dc="http://purl.org/dc/elements/1.1/">
  <defs
     id="defs1412" />
  <sodipodi:namedview
     id="namedview1410"
     pagecolor="#505050"
     bordercolor="#eeeeee"
     borderopacity="1"
     inkscape:showpageshadow="0"
     inkscape:pageopacity="0"
     inkscape:pagecheckerboard="0"
     inkscape:deskcolor="#505050"
     showgrid="false"
     inkscape:zoom="0.295"
     inkscape:cx="-38.983051"
     inkscape:cy="401.69492"
     inkscape:window-width="1920"
     inkscape:window-height="991"
     inkscape:window-x="1911"
     inkscape:window-y="-9"
     inkscape:window-maximized="1"
     inkscape:current-layer="svg1408" />
  <title
     id="title1404">instagram</title>
  <path
     d="m 19.014414,7.6792796 c 0,0.8583778 -0.715314,1.5021625 -1.502162,1.5021625 -0.858378,0 -1.502161,-0.7153162 -1.502161,-1.5021625 0,-0.8583791 0.715315,-1.5021625 1.502161,-1.5021625 0.786848,-0.071537 1.502162,0.6437834 1.502162,1.5021625 z M 24.88,8.323063 V 23.916937 C 24.88,28.351892 21.231892,32 16.796937,32 H 1.2030631 C -3.2318919,32 -6.88,28.351892 -6.88,23.916937 V 8.323063 C -6.88,3.8881081 -3.2318919,0.24 1.2030631,0.24 H 16.796937 C 21.303423,0.24 24.88,3.8881081 24.88,8.323063 Z m -3.004325,0 c 0,-2.7897292 -2.289009,-5.0787387 -5.078738,-5.0787387 H 1.2030631 c -2.7897297,0 -5.0787388,2.2890095 -5.0787388,5.0787387 v 15.593874 c 0,2.789729 2.2890091,5.078738 5.0787388,5.078738 H 16.796937 c 2.861261,0 5.150271,-2.289009 5.150271,-5.078738 z M 17.297657,16.12 c 0,-4.578018 -3.719639,-8.2976574 -8.297657,-8.2976574 -4.578018,0 -8.29765768,3.7196394 -8.29765768,8.2976574 0,4.578018 3.71963968,8.297657 8.29765768,8.297657 4.578018,0 8.297657,-3.719639 8.297657,-8.297657 z m -3.004323,0 c 0,2.932792 -2.360542,5.293334 -5.293334,5.293334 -2.9327922,0 -5.2933334,-2.360542 -5.2933334,-5.293334 0,-2.932792 2.3605412,-5.293334 5.2933334,-5.293334 2.932792,0 5.293334,2.360542 5.293334,5.293334 z"
     id="path1406"
     style="stroke-width:1.78829" />
  <metadata
     id="metadata1531">
    <rdf:RDF>
      <cc:Work
         rdf:about="">
        <dc:title>instagram</dc:title>
      </cc:Work>
    </rdf:RDF>
  </metadata>
</svg>
