<?xml version="1.0" encoding="UTF-8" standalone="no"?>
<!-- Created with Inkscape (http://www.inkscape.org/) -->

<svg
   width="300mm"
   height="300mm"
   viewBox="0 0 300 300"
   version="1.1"
   id="svg5"
   inkscape:version="1.2.2 (732a01da63, 2022-12-09)"
   sodipodi:docname="Logo-sailing-boat.svg"
   xmlns:inkscape="http://www.inkscape.org/namespaces/inkscape"
   xmlns:sodipodi="http://sodipodi.sourceforge.net/DTD/sodipodi-0.dtd"
   xmlns="http://www.w3.org/2000/svg"
   xmlns:svg="http://www.w3.org/2000/svg">
  <sodipodi:namedview
     id="namedview7"
     pagecolor="#505050"
     bordercolor="#eeeeee"
     borderopacity="1"
     inkscape:showpageshadow="0"
     inkscape:pageopacity="0"
     inkscape:pagecheckerboard="0"
     inkscape:deskcolor="#505050"
     inkscape:document-units="mm"
     showgrid="false"
     inkscape:zoom="0.2973261"
     inkscape:cx="230.38677"
     inkscape:cy="359.87423"
     inkscape:window-width="1920"
     inkscape:window-height="991"
     inkscape:window-x="1911"
     inkscape:window-y="-9"
     inkscape:window-maximized="1"
     inkscape:current-layer="layer1" />
  <defs
     id="defs2">
    <pattern
       id="EMFhbasepattern"
       patternUnits="userSpaceOnUse"
       width="6"
       height="6"
       x="0"
       y="0" />
  </defs>
  <g
     inkscape:label="Camada 1"
     inkscape:groupmode="layer"
     id="layer1">
    <g
       id="g341"
       transform="matrix(0.42774532,0,0,0.42774532,-216.03137,-9.675606)">
      <path
         style="fill:#000000;fill-opacity:1;stroke-width:4.81228"
         d="m 649.80735,718.98657 c -22.5732,-7.77815 -24.24199,-21.8637 -5.05959,-42.706 8.11578,-8.81803 13.67979,-12.78451 12.36447,-8.81437 -6.63864,20.03797 27.29973,28.87371 110.90471,28.87371 61.40863,0 115.42884,6.41559 154.54089,18.35372 26.44073,8.07044 25.82747,8.11914 -114.66229,9.10522 -100.0755,0.70245 -146.15453,-0.70023 -158.08819,-4.81228 z M 998.698,717.25034 c -7.94027,-1.26991 -49.0853,-9.97062 -91.43341,-19.33494 -51.69932,-11.43216 -90.82794,-17.25478 -119.09477,-17.7223 -48.54522,-0.80283 -51.66406,-3.36912 -17.50273,-14.40201 36.08351,-11.65367 99.89306,-10.24242 169.67887,3.75272 91.25514,18.30068 135.73344,23.51398 170.68384,20.00572 28.0165,-2.8122 30.829,-2.38809 22.4122,3.37957 -27.9799,19.1734 -93.2579,30.95604 -134.744,24.32124 z m -16.84299,-50.15348 c -118.33642,-26.86718 -184.58014,-28.09292 -252.19525,-4.66638 -15.6332,5.41637 -29.16775,9.848 -30.07678,9.848 -0.90903,0 -1.65278,-7.30707 -1.65278,-16.23795 0,-52.26478 -27.52197,-88.47578 -84.33641,-110.96248 -46.75966,-18.50713 -54.9583,-24.16686 -46.81061,-32.31454 3.03615,-3.03617 21.4214,2.31981 52.27521,15.22872 102.60809,42.9301 253.33391,96.1634 272.2791,96.1634 8.29418,0 8.70867,-12.17753 8.70867,-255.85315 0,-140.71923 -0.93781,-254.91533 -2.08403,-253.76911 -18.25751,18.2575 -25.70523,302.63281 -10.84681,414.16174 4.46521,33.51631 8.11856,62.20956 8.11856,63.76277 0,18.72335 -161.47124,-40.2653 -256.33405,-93.64393 -51.81195,-29.15421 -51.81195,-29.15421 -0.20034,-92.6656 C 920.44321,59.444723 900.04616,87.018341 900.04616,52.848509 c 0,-16.792725 2.12299,-30.228493 4.7764,-30.228493 3.09694,0 5.21204,107.023984 6.01536,304.377024 1.36475,335.28089 -4.03079,319.29963 108.31228,320.81449 20.599,0.27767 30.0975,2.30109 30.1425,6.42088 0.039,3.30845 1.3715,10.8878 2.9674,16.843 3.543,13.22074 5.9479,13.35664 -70.40509,-3.97855 z M 967.8496,618.99648 c -61.51465,-5.40834 -55.75673,5.93615 -46.04554,-90.72081 8.04164,-80.03966 8.0949,-275.6037 0.0859,-315.5704 -1.59116,-7.94027 6.60078,11.54949 18.20429,43.31057 40.36931,110.49862 74.31945,181.94431 140.81685,296.3393 20.1109,34.59653 35.318,64.14988 33.7937,65.67421 -4.9095,4.9095 -95.2477,5.50439 -146.85523,0.96713 z"
         id="path345" />
    </g>
  </g>
</svg>
