<?xml version="1.0" encoding="UTF-8" standalone="no"?>
<svg
   version="1.0"
   width="800"
   height="800"
   viewBox="0 0 600 600"
   preserveAspectRatio="xMidYMid"
   id="svg568"
   sodipodi:docname="whatsapp.svg"
   inkscape:version="1.2 (dc2aedaf03, 2022-05-15)"
   xmlns:inkscape="http://www.inkscape.org/namespaces/inkscape"
   xmlns:sodipodi="http://sodipodi.sourceforge.net/DTD/sodipodi-0.dtd"
   xmlns="http://www.w3.org/2000/svg"
   xmlns:svg="http://www.w3.org/2000/svg">
  <defs
     id="defs572" />
  <sodipodi:namedview
     id="namedview570"
     pagecolor="#505050"
     bordercolor="#eeeeee"
     borderopacity="1"
     inkscape:showpageshadow="0"
     inkscape:pageopacity="0"
     inkscape:pagecheckerboard="0"
     inkscape:deskcolor="#505050"
     inkscape:document-units="pt"
     showgrid="false"
     inkscape:zoom="1.3906433"
     inkscape:cx="369.25356"
     inkscape:cy="33.437761"
     inkscape:window-width="1920"
     inkscape:window-height="991"
     inkscape:window-x="1911"
     inkscape:window-y="-9"
     inkscape:window-maximized="1"
     inkscape:current-layer="svg568" />
  <g
     transform="matrix(0.09290566,0,0,-0.09170286,-295.77313,626.84825)"
     fill="#000000"
     stroke="none"
     id="g566">
    <path
       d="M 6185,6830 C 5815,6799 5404,6682 5056,6508 4429,6195 3936,5699 3630,5075 3180,4159 3193,3137 3665,2182 l 75,-151 -277,-822 C 3255,590 3189,383 3197,371 c 6,-9 20,-17 32,-19 16,-3 21,-10 21,-33 0,-27 3,-30 23,-23 71,22 647,206 1123,358 l 550,176 145,-68 c 569,-272 1149,-370 1754,-296 902,110 1714,612 2219,1374 409,616 614,1380 555,2077 -54,646 -290,1241 -693,1745 -396,496 -960,872 -1577,1052 -132,39 -369,88 -509,106 -115,15 -519,21 -655,10 z m 640,-674 c 580,-87 1074,-334 1485,-746 400,-399 638,-872 706,-1405 21,-166 22,-485 1,-650 -71,-565 -326,-1083 -732,-1490 -300,-302 -628,-505 -1025,-636 -263,-86 -487,-121 -790,-121 -249,-1 -392,15 -605,67 -290,70 -482,152 -807,344 -25,15 -43,10 -488,-132 -254,-81 -466,-145 -470,-142 -5,3 57,200 136,438 79,237 144,443 144,456 0,13 -26,65 -59,115 -356,553 -491,1156 -400,1791 53,371 180,697 391,1001 440,637 1131,1044 1908,1124 119,12 486,4 605,-14 z"
       id="path562" />
    <path
       d="m 5325,5227 c -62,-21 -114,-58 -191,-138 -170,-178 -250,-364 -261,-614 -13,-287 99,-604 352,-995 423,-653 848,-1036 1410,-1270 288,-120 476,-182 600,-200 93,-12 277,15 391,59 103,40 247,134 311,204 98,108 183,348 183,519 0,71 -2,80 -27,108 -51,56 -685,387 -760,397 -68,9 -95,-10 -207,-141 -174,-203 -228,-256 -259,-256 -36,0 -277,121 -392,197 -281,186 -515,441 -698,765 -15,26 -27,51 -27,57 0,6 32,46 71,88 94,103 125,150 165,247 46,109 44,138 -17,303 -88,240 -116,315 -164,444 -50,134 -88,193 -139,214 -47,20 -292,28 -341,12 z"
       id="path564" />
  </g>
</svg>
